#!OML:ASF H:\MichaelJackson\Top Level 1\Subject 1\Session 1\male.ASF
:FULLY-SPECIFIED
:DEGREES
96
root 21.4044 16.9493 -5.2629 9.30931 -2.65246 -9.23096
lowerback 0.83641 4.23898 7.09232
upperback 1.03003 5.66409 1.23977
thorax 1.15678 2.886 -2.63137
lowerneck -9.33232 1.83431 7.23806
upperneck 4.22897 1.74617 -2.75691
head 3.15039 0.891327 -2.10758
rclavicle 8.24956e-015 -1.78906e-015
rhumerus -46.8497 12.7552 -85.3929
rradius 57.4004
rwrist 9.39515
rhand -0.516372 -2.12903
rfingers 7.12502
rthumb 25.0957 -30.4999
lclavicle 8.24956e-015 -1.78906e-015
lhumerus -44.5237 -18.1689 99.9525
lradius 30.2244
lwrist -2.77049
lhand 19.8297 14.6759
lfingers 7.12502
lthumb 44.3764 38.417
rfemur -14.9135 -6.47777 31.407
rtibia 25.4998
rfoot -18.4883 7.02236
rtoes 0.951834
lfemur -42.4326 10.2771 -16.5393
ltibia 49.3173
lfoot -9.00907 5.31523
ltoes 22.6323
97
root 21.4134 16.9422 -5.10955 9.45397 -2.96811 -9.3803
lowerback 0.59747 4.34309 7.08493
upperback 0.990159 5.78393 1.2175
thorax 1.26272 2.94811 -2.62867
lowerneck -9.35073 1.9962 7.35752
upperneck 4.28243 1.95443 -2.87594
head 3.18956 0.993107 -2.15856
rclavicle -3.19546e-014 -2.44505e-014
rhumerus -45.8914 11.7756 -84.3646
rradius 57.6241
rwrist 7.34694
rhand 5.39713 -2.62652
rfingers 7.12502
rthumb 30.7487 -30.0756
lclavicle -3.19546e-014 -2.44505e-014
lhumerus -46.1775 -19.2843 101.429
lradius 31.3972
lwrist -1.32683
lhand 20.1026 14.8955
lfingers 7.12502
lthumb 44.6306 38.5391
rfemur -14.1848 -6.37897 31.4272
rtibia 25.0253
rfoot -18.7942 7.10285
rtoes 0.872283
lfemur -42.5192 10.6089 -16.5269
ltibia 46.7514
lfoot -9.13708 4.61957
ltoes 22.0421
98
root 21.4224 16.933 -4.95624 9.58303 -3.2615 -9.54412
lowerback 0.373026 4.44554 7.08528
upperback 0.93957 5.90344 1.19729
thorax 1.35002 3.00927 -2.62911
lowerneck -9.31429 2.14814 7.48449
upperneck 4.32069 2.1523 -2.98779
head 3.21292 1.09022 -2.20884
rclavicle 6.18717e-014 1.27222e-014
rhumerus -44.8027 10.2857 -83.1772
rradius 57.5328
rwrist 5.4543
rhand 10.4036 -3.54905
rfingers 7.12502
rthumb 35.509 -29.9847
lclavicle 6.18717e-014 1.27222e-014
lhumerus -47.7948 -20.2072 102.85
lradius 32.6227
lwrist 0.589465
lhand 20.023 15.4195
lfingers 7.12502
lthumb 44.5565 39.0917
rfemur -13.4399 -6.26283 31.459
rtibia 24.5481
rfoot -19.0646 7.16252
rtoes 0.956064
lfemur -42.5839 11.0091 -16.5208
ltibia 44.1929
lfoot -9.24743 3.94064
ltoes 21.4037
99
root 21.4317 16.9225 -4.80293 9.69766 -3.53392 -9.72655
lowerback 0.162354 4.54412 7.09539
upperback 0.882592 6.01925 1.18443
thorax 1.42289 3.06804 -2.62831
lowerneck -9.23256 2.29336 7.61117
upperneck 4.34089 2.34441 -3.09187
head 3.22132 1.18477 -2.25663
rclavicle 3.44891e-014 5.1684e-015
rhumerus -43.6254 8.35854 -81.8863
rradius 57.1383
rwrist 3.85356
rhand 13.9224 -4.68207
rfingers 7.12502
rthumb 38.8364 -30.2488
lclavicle 3.44891e-014 5.1684e-015
lhumerus -49.3333 -20.9191 104.189
lradius 33.8677
lwrist 3.01357
lhand 19.6559 16.2427
lfingers 7.12502
lthumb 44.2144 40.0452
rfemur -12.6745 -6.14088 31.5057
rtibia 24.0576
rfoot -19.3017 7.21184
rtoes 1.1453
lfemur -42.6343 11.4853 -16.5271
ltibia 41.6581
lfoot -9.30792 3.32082
ltoes 20.8672
100
root 21.4414 16.9111 -4.64941 9.8018 -3.78911 -9.93144
lowerback -0.0338422 4.63638 7.11263
upperback 0.818962 6.12804 1.18474
thorax 1.47942 3.12262 -2.61922
lowerneck -9.11746 2.43602 7.73168
upperneck 4.35078 2.53609 -3.1866
head 3.21982 1.27946 -2.30012
rclavicle 1.9133e-014 -2.14687e-014
rhumerus -42.3967 6.08829 -80.554
rradius 56.4567
rwrist 2.58616
rhand 15.4912 -5.80541
rfingers 7.12502
rthumb 40.3138 -30.936
lclavicle 1.9133e-014 -2.14687e-014
lhumerus -50.7507 -21.3931 105.404
lradius 35.0935
lwrist 5.8166
lhand 18.9958 17.2954
lfingers 7.12502
lthumb 43.5985 41.3264
rfemur -11.8871 -6.02073 31.5717
rtibia 23.5432
rfoot -19.5015 7.26895
rtoes 1.41413
lfemur -42.6786 12.038 -16.5464
ltibia 39.1641
lfoot -9.29319 2.81542
ltoes 20.4176
101
root 21.4516 16.8992 -4.496 9.90917 -4.01962 -10.1555
lowerback -0.227278 4.71991 7.12815
upperback 0.747558 6.22564 1.2031
thorax 1.52303 3.17089 -2.59139
lowerneck -8.97764 2.57649 7.83384
upperneck 4.34806 2.7287 -3.27254
head 3.20901 1.37461 -2.33718
rclavicle 2.23136e-014 4.77083e-015
rhumerus -41.1387 3.57185 -79.2248
rradius 55.5527
rwrist 1.4715
rhand 15.049 -6.90314
rfingers 7.12502
rthumb 39.8978 -32.16
lclavicle 2.23136e-014 4.77083e-015
lhumerus -52.0076 -21.623 106.462
lradius 36.2405
lwrist 8.78628
lhand 18.1341 18.4717
lfingers 7.12502
lthumb 42.793 42.7903
rfemur -11.0941 -5.9242 31.655
rtibia 23
rfoot -19.6721 7.34596
rtoes 1.6879
lfemur -42.7402 12.6389 -16.582
ltibia 36.7287
lfoot -9.20429 2.51754
ltoes 20.0279
102
root 21.4626 16.8869 -4.34219 10.0178 -4.23515 -10.3992
lowerback -0.419493 4.79767 7.14391
upperback 0.670718 6.31566 1.23935
thorax 1.55751 3.21486 -2.54574
lowerneck -8.815 2.71659 7.91428
upperneck 4.33339 2.92467 -3.34662
head 3.18938 1.47151 -2.36606
rclavicle -2.68359e-015 -4.81059e-014
rhumerus -39.8697 0.906684 -77.9543
rradius 54.466
rwrist 0.382456
rhand 12.6556 -7.99097
rfingers 7.12502
rthumb 37.6405 -33.8871
lclavicle -2.68359e-015 -4.81059e-014
lhumerus -53.0984 -21.6326 107.357
lradius 37.2537
lwrist 11.6019
lhand 16.5777 19.4083
lfingers 7.12502
lthumb 41.3346 44.2174
rfemur -10.291 -5.86954 31.752
rtibia 22.4284
rfoot -19.8309 7.46336
rtoes 1.90043
lfemur -42.8149 13.2778 -16.6282
ltibia 34.3683
lfoot -9.08356 2.52922
ltoes 19.6834
